Coordinates
version=1
nRows=6
nColumns=63
inDegrees=yes

Units are S.I. units (second, meters, Newtons, ...)
If the header above contains a line with 'inDegrees', this indicates whether rotational values are in degrees (yes) or radians (no).

endheader
time	pelvis_tilt	pelvis_list	pelvis_rotation	pelvis_tx	pelvis_ty	pelvis_tz	hip_flexion_r	hip_adduction_r	hip_rotation_r	knee_angle_r	knee_angle_r_beta	ankle_angle_r	subtalar_angle_r	mtp_angle_r	hip_flexion_l	hip_adduction_l	hip_rotation_l	knee_angle_l	knee_angle_l_beta	ankle_angle_l	subtalar_angle_l	mtp_angle_l	L5_S1_Flex_Ext	L5_S1_Lat_Bending	L5_S1_axial_rotation	L4_L5_Flex_Ext	L4_L5_Lat_Bending	L4_L5_axial_rotation	L3_L4_Flex_Ext	L3_L4_Lat_Bending	L3_L4_axial_rotation	L2_L3_Flex_Ext	L2_L3_Lat_Bending	L2_L3_axial_rotation	L1_L2_Flex_Ext	L1_L2_Lat_Bending	L1_L2_axial_rotation	L1_T12_Flex_Ext	L1_T12_Lat_Bending	L1_T12_axial_rotation	Abs_r3	Abs_r2	Abs_r1	Abs_t1	Abs_t2	neck_flexion	neck_bending	neck_rotation	arm_flex_r	arm_add_r	arm_rot_r	elbow_flex_r	pro_sup_r	wrist_flex_r	wrist_dev_r	arm_flex_l	arm_add_l	arm_rot_l	elbow_flex_l	pro_sup_l	wrist_flex_l	wrist_dev_l
     16.33333333	     -1.85405841	      0.95525835	    -29.97591167	     -1.72170369	      0.84159590	      0.30381253	     -7.95447915	     -6.84977592	     15.15698010	     24.32271303	      0.42451143	     14.33124540	     -3.99260164	      0.00000000	     22.21746187	    -11.84152451	    -20.71659249	     21.23505076	      0.37062155	      9.35101899	     -9.17319241	      0.00000000	     -0.03180257	     -0.38535770	      5.86358883	     -0.05906055	     -0.51252574	      6.23006313	     -0.05224844	     -0.93695872	      6.23006313	     -0.03634715	     -0.93695872	      5.13064023	     -0.02953186	     -0.78582143	      4.76416593	     -0.01817199	     -0.59691908	      4.39769162	     -0.22716255	     -4.35924340	     32.61152201	      0.00000000	      0.00000000	      0.00000000	      0.00000000	      0.00000000	     -7.48042788	     -3.29744642	     -3.09748236	     25.80791444	     36.08624667	      0.00000000	      5.00000014	    -12.81498407	      6.21054691	    -37.70674778	     34.01635628	     35.52906523	      0.00000000	      5.00000014
     16.36666667	     -1.85824801	      0.94814701	    -29.98230226	     -1.72171614	      0.84160349	      0.30385189	     -7.96440905	     -6.80933167	     15.29238530	     24.31428892	      0.42436440	     14.26243274	     -4.20783782	      0.00000000	     22.21508716	    -11.88266044	    -20.85120915	     21.25969815	      0.37105173	      9.42206163	     -8.96142199	      0.00000000	     -0.03169330	     -0.38491047	      5.86316965	     -0.05885763	     -0.51193092	      6.22961775	     -0.05206893	     -0.93587131	      6.22961775	     -0.03622228	     -0.93587131	      5.13027344	     -0.02943040	     -0.78490943	      4.76382534	     -0.01810955	     -0.59622631	      4.39737723	     -0.22638210	     -4.35418419	     32.60919062	      0.00000000	      0.00000000	      0.00000000	      0.00000000	      0.00000000	     -7.46056862	     -3.31887800	     -2.86155283	     25.77508063	     35.31511767	      0.00000000	      5.00000014	    -12.82597538	      6.20138211	    -37.57569676	     34.03943069	     34.68630141	      0.00000000	      5.00000014
     16.40000000	     -1.88657969	      0.94088738	    -29.73170725	     -1.72155822	      0.84158171	      0.30364250	     -8.03061776	     -6.82744923	     14.68786394	     24.20288242	      0.42241999	     14.27178571	     -3.81002888	      0.00000000	     22.34895750	    -11.77843331	    -20.37681999	     21.30717702	      0.37188039	      9.30977973	     -9.32488473	      0.00000000	     -0.02863240	     -0.38354960	      5.81728671	     -0.05317323	     -0.51012096	      6.18086713	     -0.04704017	     -0.93256249	      6.18086713	     -0.03272397	     -0.93256249	      5.09012587	     -0.02658805	     -0.78213434	      4.72654545	     -0.01636055	     -0.59411833	      4.36296503	     -0.20451838	     -4.33878975	     32.35400349	      0.00000000	      0.00000000	      0.00000000	      0.00000000	      0.00000000	     -7.46564074	     -3.28273211	     -2.95482614	     25.73927474	     35.42822937	      0.00000000	      5.00000014	    -12.82121490	      6.18235343	    -37.61378109	     33.98991880	     34.81990998	      0.00000000	      5.00000014
     16.43333333	     -1.87033797	      0.90663562	    -29.70257222	     -1.72149357	      0.84160779	      0.30358605	     -8.09935200	     -6.87529959	     14.39461961	     24.12330260	      0.42103106	     14.39489144	     -3.32270715	      0.00000000	     22.29706850	    -11.89868572	    -20.91982403	     21.34292288	      0.37250428	      9.54959950	     -8.41253999	      0.00000000	     -0.03130318	     -0.37947332	      5.81155124	     -0.05813314	     -0.50469951	      6.17477319	     -0.05142800	     -0.92265142	      6.17477319	     -0.03577641	     -0.92265142	      5.08510733	     -0.02906814	     -0.77382199	      4.72188538	     -0.01788664	     -0.58780417	      4.35866343	     -0.22359552	     -4.29267805	     32.32210451	      0.00000000	      0.00000000	      0.00000000	      0.00000000	      0.00000000	     -7.45104177	     -3.29839132	     -3.02933100	     25.69848616	     35.60194477	      0.00000000	      5.00000014	    -12.83240871	      6.21823063	    -37.63079963	     34.01044797	     35.00129307	      0.00000000	      5.00000014
     16.46666667	     -1.84636399	      0.99050708	    -29.88712202	     -1.72163657	      0.84159985	      0.30368601	     -7.93496491	     -7.00606860	     14.47808328	     24.31762034	      0.42442254	     14.49946479	     -3.12266692	      0.00000000	     22.26724709	    -11.77164810	    -20.62919706	     21.26207220	      0.37109317	      9.31037997	     -9.23639600	      0.00000000	     -0.03181379	     -0.38931299	      5.84366428	     -0.05908140	     -0.51778628	      6.20889330	     -0.05226688	     -0.94657561	      6.20889330	     -0.03635999	     -0.94657561	      5.11320625	     -0.02954229	     -0.79388706	      4.74797723	     -0.01817840	     -0.60304583	      4.38274821	     -0.22724276	     -4.40398645	     32.50070765	      0.00000000	      0.00000000	      0.00000000	      0.00000000	      0.00000000	     -7.40986984	     -3.26986617	     -3.11362599	     25.62549734	     35.88580503	      0.00000000	      5.00000014	    -12.81496433	      6.20533023	    -37.72085124	     33.99083003	     35.30902256	      0.00000000	      5.00000014
     16.50000000	     -1.84557432	      1.01802781	    -29.82904262	     -1.72163210	      0.84156731	      0.30359976	     -7.91233441	     -7.02695488	     14.41819000	     24.35125086	      0.42500950	     14.58242494	     -3.01739363	      0.00000000	     22.28673524	    -11.67774772	    -20.38141085	     21.21141324	      0.37020900	      9.20715036	     -9.50462135	      0.00000000	     -0.03129473	     -0.39230268	      5.83506457	     -0.05811744	     -0.52176257	      6.19975610	     -0.05141411	     -0.95384474	      6.19975610	     -0.03576675	     -0.95384474	      5.10568150	     -0.02906029	     -0.79998363	      4.74098996	     -0.01788181	     -0.60767686	      4.37629843	     -0.22353513	     -4.43780641	     32.45287860	      0.00000000	      0.00000000	      0.00000000	      0.00000000	      0.00000000	     -7.40649251	     -3.23825738	     -3.25345273	     25.58418013	     35.94634559	      0.00000000	      5.00000014	    -12.80469713	      6.19837172	    -37.73234740	     33.99006404	     35.38600110	      0.00000000	      5.00000014
